<?xml version="1.0" encoding="utf-8" ?>
<svg baseProfile="full" height="600" version="1.1" width="801" xmlns="http://www.w3.org/2000/svg" xmlns:ev="http://www.w3.org/2001/xml-events" xmlns:xlink="http://www.w3.org/1999/xlink"><defs /><text font-size="14" font-weight="bold" x="0" y="96.0">Alex</text><text transform="translate(131.42857142857144,70) rotate(-90)">Monday</text><rect fill="white" height="32.0" rx="2" ry="2" stroke="#636363" stroke-width="1" width="102.85714285714286" x="80.0" y="80.0" /><text transform="translate(234.28571428571428,70) rotate(-90)">Tuesday</text><rect fill="#969696" height="32.0" rx="2" ry="2" stroke="#636363" stroke-width="1" width="102.85714285714286" x="182.85714285714286" y="80.0" /><text transform="translate(337.14285714285717,70) rotate(-90)">Wednesday</text><rect fill="white" height="32.0" rx="2" ry="2" stroke="#636363" stroke-width="1" width="102.85714285714286" x="285.7142857142857" y="80.0" /><text transform="translate(440.0,70) rotate(-90)">Thursday</text><rect fill="#969696" height="32.0" rx="2" ry="2" stroke="#636363" stroke-width="1" width="102.85714285714286" x="388.57142857142856" y="80.0" /><text transform="translate(542.8571428571429,70) rotate(-90)">Friday</text><rect fill="#969696" height="32.0" rx="2" ry="2" stroke="#636363" stroke-width="1" width="102.85714285714286" x="491.42857142857144" y="80.0" /><text transform="translate(645.7142857142858,70) rotate(-90)">Saturday</text><rect fill="#969696" height="32.0" rx="2" ry="2" stroke="#636363" stroke-width="1" width="102.85714285714286" x="594.2857142857143" y="80.0" /><text transform="translate(748.5714285714286,70) rotate(-90)">Sunday</text><rect fill="white" height="32.0" rx="2" ry="2" stroke="#636363" stroke-width="1" width="102.85714285714286" x="697.1428571428571" y="80.0" /><text font-size="14" font-weight="bold" x="0" y="148.0">Alison</text><rect fill="white" height="32.0" rx="2" ry="2" stroke="#636363" stroke-width="1" width="102.85714285714286" x="80.0" y="132.0" /><rect fill="#41ab5d" height="32.0" rx="2" ry="2" stroke="#636363" stroke-width="1" width="102.85714285714286" x="182.85714285714286" y="132.0" /><rect fill="white" height="32.0" rx="2" ry="2" stroke="#636363" stroke-width="1" width="102.85714285714286" x="285.7142857142857" y="132.0" /><rect fill="#41ab5d" height="32.0" rx="2" ry="2" stroke="#636363" stroke-width="1" width="102.85714285714286" x="388.57142857142856" y="132.0" /><rect fill="#41ab5d" height="32.0" rx="2" ry="2" stroke="#636363" stroke-width="1" width="102.85714285714286" x="491.42857142857144" y="132.0" /><rect fill="#41ab5d" height="32.0" rx="2" ry="2" stroke="#636363" stroke-width="1" width="102.85714285714286" x="594.2857142857143" y="132.0" /><rect fill="#41ab5d" height="32.0" rx="2" ry="2" stroke="#636363" stroke-width="1" width="102.85714285714286" x="697.1428571428571" y="132.0" /><text font-size="14" font-weight="bold" x="0" y="200.0">Austin</text><rect fill="#41ab5d" height="32.0" rx="2" ry="2" stroke="#636363" stroke-width="1" width="102.85714285714286" x="80.0" y="184.0" /><rect fill="#41ab5d" height="32.0" rx="2" ry="2" stroke="#636363" stroke-width="1" width="102.85714285714286" x="182.85714285714286" y="184.0" /><rect fill="#41ab5d" height="32.0" rx="2" ry="2" stroke="#636363" stroke-width="1" width="102.85714285714286" x="285.7142857142857" y="184.0" /><rect fill="#41ab5d" height="32.0" rx="2" ry="2" stroke="#636363" stroke-width="1" width="102.85714285714286" x="388.57142857142856" y="184.0" /><rect fill="white" height="32.0" rx="2" ry="2" stroke="#636363" stroke-width="1" width="102.85714285714286" x="491.42857142857144" y="184.0" /><rect fill="white" height="32.0" rx="2" ry="2" stroke="#636363" stroke-width="1" width="102.85714285714286" x="594.2857142857143" y="184.0" /><rect fill="#41ab5d" height="32.0" rx="2" ry="2" stroke="#636363" stroke-width="1" width="102.85714285714286" x="697.1428571428571" y="184.0" /><text font-size="14" font-weight="bold" x="0" y="252.0">Ben</text><rect fill="white" height="32.0" rx="2" ry="2" stroke="#636363" stroke-width="1" width="102.85714285714286" x="80.0" y="236.0" /><rect fill="#41ab5d" height="32.0" rx="2" ry="2" stroke="#636363" stroke-width="1" width="102.85714285714286" x="182.85714285714286" y="236.0" /><rect fill="#41ab5d" height="32.0" rx="2" ry="2" stroke="#636363" stroke-width="1" width="102.85714285714286" x="285.7142857142857" y="236.0" /><rect fill="#41ab5d" height="32.0" rx="2" ry="2" stroke="#636363" stroke-width="1" width="102.85714285714286" x="388.57142857142856" y="236.0" /><rect fill="#41ab5d" height="32.0" rx="2" ry="2" stroke="#636363" stroke-width="1" width="102.85714285714286" x="491.42857142857144" y="236.0" /><rect fill="#41ab5d" height="32.0" rx="2" ry="2" stroke="#636363" stroke-width="1" width="102.85714285714286" x="594.2857142857143" y="236.0" /><rect fill="#41ab5d" height="32.0" rx="2" ry="2" stroke="#636363" stroke-width="1" width="102.85714285714286" x="697.1428571428571" y="236.0" /><text font-size="14" font-weight="bold" x="0" y="304.0">Garret</text><rect fill="white" height="32.0" rx="2" ry="2" stroke="#636363" stroke-width="1" width="102.85714285714286" x="80.0" y="288.0" /><rect fill="white" height="32.0" rx="2" ry="2" stroke="#636363" stroke-width="1" width="102.85714285714286" x="182.85714285714286" y="288.0" /><rect fill="#41ab5d" height="32.0" rx="2" ry="2" stroke="#636363" stroke-width="1" width="102.85714285714286" x="285.7142857142857" y="288.0" /><rect fill="#41ab5d" height="32.0" rx="2" ry="2" stroke="#636363" stroke-width="1" width="102.85714285714286" x="388.57142857142856" y="288.0" /><rect fill="#41ab5d" height="32.0" rx="2" ry="2" stroke="#636363" stroke-width="1" width="102.85714285714286" x="491.42857142857144" y="288.0" /><rect fill="#41ab5d" height="32.0" rx="2" ry="2" stroke="#636363" stroke-width="1" width="102.85714285714286" x="594.2857142857143" y="288.0" /><rect fill="#41ab5d" height="32.0" rx="2" ry="2" stroke="#636363" stroke-width="1" width="102.85714285714286" x="697.1428571428571" y="288.0" /><text font-size="14" font-weight="bold" x="0" y="356.0">Julia</text><rect fill="white" height="32.0" rx="2" ry="2" stroke="#636363" stroke-width="1" width="102.85714285714286" x="80.0" y="340.0" /><rect fill="white" height="32.0" rx="2" ry="2" stroke="#636363" stroke-width="1" width="102.85714285714286" x="182.85714285714286" y="340.0" /><rect fill="white" height="32.0" rx="2" ry="2" stroke="#636363" stroke-width="1" width="102.85714285714286" x="285.7142857142857" y="340.0" /><rect fill="#969696" height="32.0" rx="2" ry="2" stroke="#636363" stroke-width="1" width="102.85714285714286" x="388.57142857142856" y="340.0" /><rect fill="#969696" height="32.0" rx="2" ry="2" stroke="#636363" stroke-width="1" width="102.85714285714286" x="491.42857142857144" y="340.0" /><rect fill="#969696" height="32.0" rx="2" ry="2" stroke="#636363" stroke-width="1" width="102.85714285714286" x="594.2857142857143" y="340.0" /><rect fill="#969696" height="32.0" rx="2" ry="2" stroke="#636363" stroke-width="1" width="102.85714285714286" x="697.1428571428571" y="340.0" /><text font-size="14" font-weight="bold" x="0" y="408.0">Mark</text><rect fill="white" height="32.0" rx="2" ry="2" stroke="#636363" stroke-width="1" width="102.85714285714286" x="80.0" y="392.0" /><rect fill="white" height="32.0" rx="2" ry="2" stroke="#636363" stroke-width="1" width="102.85714285714286" x="182.85714285714286" y="392.0" /><rect fill="white" height="32.0" rx="2" ry="2" stroke="#636363" stroke-width="1" width="102.85714285714286" x="285.7142857142857" y="392.0" /><rect fill="#969696" height="32.0" rx="2" ry="2" stroke="#636363" stroke-width="1" width="102.85714285714286" x="388.57142857142856" y="392.0" /><rect fill="#969696" height="32.0" rx="2" ry="2" stroke="#636363" stroke-width="1" width="102.85714285714286" x="491.42857142857144" y="392.0" /><rect fill="#969696" height="32.0" rx="2" ry="2" stroke="#636363" stroke-width="1" width="102.85714285714286" x="594.2857142857143" y="392.0" /><rect fill="#969696" height="32.0" rx="2" ry="2" stroke="#636363" stroke-width="1" width="102.85714285714286" x="697.1428571428571" y="392.0" /><text font-size="14" font-weight="bold" x="0" y="460.0">Thomas</text><rect fill="#41ab5d" height="32.0" rx="2" ry="2" stroke="#636363" stroke-width="1" width="102.85714285714286" x="80.0" y="444.0" /><rect fill="white" height="32.0" rx="2" ry="2" stroke="#636363" stroke-width="1" width="102.85714285714286" x="182.85714285714286" y="444.0" /><rect fill="white" height="32.0" rx="2" ry="2" stroke="#636363" stroke-width="1" width="102.85714285714286" x="285.7142857142857" y="444.0" /><rect fill="#41ab5d" height="32.0" rx="2" ry="2" stroke="#636363" stroke-width="1" width="102.85714285714286" x="388.57142857142856" y="444.0" /><rect fill="#41ab5d" height="32.0" rx="2" ry="2" stroke="#636363" stroke-width="1" width="102.85714285714286" x="491.42857142857144" y="444.0" /><rect fill="#41ab5d" height="32.0" rx="2" ry="2" stroke="#636363" stroke-width="1" width="102.85714285714286" x="594.2857142857143" y="444.0" /><rect fill="#41ab5d" height="32.0" rx="2" ry="2" stroke="#636363" stroke-width="1" width="102.85714285714286" x="697.1428571428571" y="444.0" /><text font-size="14" font-weight="bold" x="0" y="512.0">Tim</text><rect fill="white" height="32.0" rx="2" ry="2" stroke="#636363" stroke-width="1" width="102.85714285714286" x="80.0" y="496.0" /><rect fill="white" height="32.0" rx="2" ry="2" stroke="#636363" stroke-width="1" width="102.85714285714286" x="182.85714285714286" y="496.0" /><rect fill="#41ab5d" height="32.0" rx="2" ry="2" stroke="#636363" stroke-width="1" width="102.85714285714286" x="285.7142857142857" y="496.0" /><rect fill="#41ab5d" height="32.0" rx="2" ry="2" stroke="#636363" stroke-width="1" width="102.85714285714286" x="388.57142857142856" y="496.0" /><rect fill="#41ab5d" height="32.0" rx="2" ry="2" stroke="#636363" stroke-width="1" width="102.85714285714286" x="491.42857142857144" y="496.0" /><rect fill="#41ab5d" height="32.0" rx="2" ry="2" stroke="#636363" stroke-width="1" width="102.85714285714286" x="594.2857142857143" y="496.0" /><rect fill="#41ab5d" height="32.0" rx="2" ry="2" stroke="#636363" stroke-width="1" width="102.85714285714286" x="697.1428571428571" y="496.0" /><text font-size="14" font-weight="bold" x="0" y="564.0">Wyatt</text><rect fill="white" height="32.0" rx="2" ry="2" stroke="#636363" stroke-width="1" width="102.85714285714286" x="80.0" y="548.0" /><rect fill="#41ab5d" height="32.0" rx="2" ry="2" stroke="#636363" stroke-width="1" width="102.85714285714286" x="182.85714285714286" y="548.0" /><rect fill="#41ab5d" height="32.0" rx="2" ry="2" stroke="#636363" stroke-width="1" width="102.85714285714286" x="285.7142857142857" y="548.0" /><rect fill="#41ab5d" height="32.0" rx="2" ry="2" stroke="#636363" stroke-width="1" width="102.85714285714286" x="388.57142857142856" y="548.0" /><rect fill="white" height="32.0" rx="2" ry="2" stroke="#636363" stroke-width="1" width="102.85714285714286" x="491.42857142857144" y="548.0" /><rect fill="#41ab5d" height="32.0" rx="2" ry="2" stroke="#636363" stroke-width="1" width="102.85714285714286" x="594.2857142857143" y="548.0" /><rect fill="#41ab5d" height="32.0" rx="2" ry="2" stroke="#636363" stroke-width="1" width="102.85714285714286" x="697.1428571428571" y="548.0" /></svg>